<svg width="24" height="24" fill="none" xmlns="http://www.w3.org/2000/svg"><path d="M20.252 2.248c.818 0 1.5.683 1.5 1.501v10.503c0 .818-.682 1.5-1.5 1.5h-2.253a1.506 1.506 0 01-1.301-.777c-.506.31-1.004.492-1.324.677-.755.436-1.138 1.662-1.317 2.94-.09.639-.137 1.253-.216 1.765-.039.256-.077.483-.183.73-.052.125-.121.26-.266.4a1 1 0 01-.642.266c-1.112 0-2.024-.435-2.607-1.102-.583-.666-.855-1.502-1.002-2.331-.24-1.355-.148-2.502-.102-3.321H4.502a2.264 2.264 0 01-2.254-2.249c0-.437.124-.767.282-1.278.159-.512.374-1.128.61-1.789.472-1.32 1.033-2.818 1.4-3.92.147-.44.337-.901.681-1.3a2.052 2.052 0 011.528-.714h9.003c.262 0 .511.055.747.14v-.14c0-.818.681-1.501 1.5-1.501h2.253zm0 1.501h-2.253v10.503h2.253V3.749zm-4.5 1.5H6.749c-.201 0-.26.04-.392.194-.133.153-.278.45-.394.798-.383 1.149-.945 2.642-1.411 3.946a45.726 45.726 0 00-.587 1.728c-.147.473-.217.898-.217.835 0 .429.326.747.754.747h5.314a.751.751 0 01.753.755c0 .886-.192 2.468.044 3.808.118.67.34 1.235.66 1.6.235.27.569.482 1.072.564.075-.428.126-1.158.222-1.843.196-1.397.564-3.166 2.06-4.03.556-.32 1.095-.508 1.418-.73.322-.223.454-.343.454-.87v-6.75a.732.732 0 00-.747-.753z" fill="#AD475C"/></svg>