<svg width="354" height="15" viewBox="0 0 352 15" fill="none" xmlns="http://www.w3.org/2000/svg"><path d="M3.003 1.5A1.5 1.5 0 110 1.499a1.5 1.5 0 013.002.001zm0 6A1.5 1.5 0 110 7.499a1.5 1.5 0 013.002.001zm0 6A1.5 1.5 0 110 13.499a1.5 1.5 0 013.002.001zm6.004-12a1.5 1.5 0 11-3-.001 1.5 1.5 0 013 .001zm0 6a1.5 1.5 0 11-3-.001 1.5 1.5 0 013 .001zm0 6a1.5 1.5 0 11-3-.001 1.5 1.5 0 013 .001zm6.005-12a1.5 1.5 0 11-3-.001 1.5 1.5 0 013 .001zm0 6a1.5 1.5 0 11-3-.001 1.5 1.5 0 013 .001zm0 6a1.5 1.5 0 11-3.001-.001 1.5 1.5 0 013.001.001zm6.006-12a1.5 1.5 0 11-3.001-.001 1.5 1.5 0 013.001.001zm0 6a1.5 1.5 0 11-3.001-.001 1.5 1.5 0 013.001.001zm0 6a1.5 1.5 0 11-3.001-.001 1.5 1.5 0 013.001.001zm6.005-12a1.5 1.5 0 11-3.001-.001 1.5 1.5 0 013.001.001zm0 6a1.5 1.5 0 11-3.001-.001 1.5 1.5 0 013.001.001zm0 6a1.5 1.5 0 11-3.001-.001 1.5 1.5 0 013.001.001zm6.005-12a1.5 1.5 0 11-3.001-.001 1.5 1.5 0 013 .001zm0 6a1.5 1.5 0 11-3.001-.001 1.5 1.5 0 013 .001zm0 6a1.5 1.5 0 11-3.001-.001 1.5 1.5 0 013 .001zm6.005-12a1.5 1.5 0 11-3.001-.001 1.5 1.5 0 013 .001zm0 6a1.5 1.5 0 11-3.001-.001 1.5 1.5 0 013 .001zm0 6a1.5 1.5 0 11-3.001-.001 1.5 1.5 0 013 .001zm6.005-12a1.5 1.5 0 11-3.002-.001 1.5 1.5 0 013.002.001zm0 6a1.5 1.5 0 11-3.002-.001 1.5 1.5 0 013.002.001zm0 6a1.5 1.5 0 11-3.002-.001 1.5 1.5 0 013.002.001zm6.006-12a1.5 1.5 0 11-3.002-.001 1.5 1.5 0 013.002.001zm0 6a1.5 1.5 0 11-3.002-.001 1.5 1.5 0 013.002.001zm0 6a1.5 1.5 0 11-3.002-.001 1.5 1.5 0 013.002.001zm6.004-12a1.5 1.5 0 11-3-.001 1.5 1.5 0 013 .001zm0 6a1.5 1.5 0 11-3-.001 1.5 1.5 0 013 .001zm0 6a1.5 1.5 0 11-3-.001 1.5 1.5 0 013 .001zm6.005-12a1.5 1.5 0 11-3-.001 1.5 1.5 0 013 .001zm0 6a1.5 1.5 0 11-3-.001 1.5 1.5 0 013 .001zm0 6a1.5 1.5 0 11-3-.001 1.5 1.5 0 013 .001zm6.005-12a1.5 1.5 0 11-3.001-.001 1.5 1.5 0 013.001.001zm0 6a1.5 1.5 0 11-3.001-.001 1.5 1.5 0 013.001.001zm0 6a1.5 1.5 0 11-3.001-.001 1.5 1.5 0 013.001.001zm6.006-12a1.5 1.5 0 11-3.001-.001 1.5 1.5 0 013.001.001zm0 6a1.5 1.5 0 11-3.001-.001 1.5 1.5 0 013.001.001zm0 6a1.5 1.5 0 11-3.001-.001 1.5 1.5 0 013.001.001zm6.005-12a1.5 1.5 0 11-3.001-.001 1.5 1.5 0 013.001.001zm0 6a1.5 1.5 0 11-3.001-.001 1.5 1.5 0 013.001.001zm0 6a1.5 1.5 0 11-3.001-.001 1.5 1.5 0 013.001.001zm6.005-12a1.5 1.5 0 11-3.001-.001 1.5 1.5 0 013 .001zm0 6a1.5 1.5 0 11-3.001-.001 1.5 1.5 0 013 .001zm0 6a1.5 1.5 0 11-3.001-.001 1.5 1.5 0 013 .001zm6.005-12a1.5 1.5 0 11-3.002-.001 1.5 1.5 0 013.002.001zm0 6a1.5 1.5 0 11-3.002-.001 1.5 1.5 0 013.002.001zm0 6a1.5 1.5 0 11-3.002-.001 1.5 1.5 0 013.002.001zm6.005-12a1.5 1.5 0 11-3.002-.001 1.5 1.5 0 013.002.001zm0 6a1.5 1.5 0 11-3.002-.001 1.5 1.5 0 013.002.001zm0 6a1.5 1.5 0 11-3.002-.001 1.5 1.5 0 013.002.001zm6.005-12a1.5 1.5 0 11-3.001-.001 1.5 1.5 0 013.001.001zm0 6a1.5 1.5 0 11-3.001-.001 1.5 1.5 0 013.001.001zm0 6a1.5 1.5 0 11-3.001-.001 1.5 1.5 0 013.001.001zm6.005-12a1.5 1.5 0 11-3.001-.001 1.5 1.5 0 013.001.001zm0 6a1.5 1.5 0 11-3.001-.001 1.5 1.5 0 013.001.001zm0 6a1.5 1.5 0 11-3.001-.001 1.5 1.5 0 013.001.001zm6.005-12a1.5 1.5 0 11-3.001-.001 1.5 1.5 0 013.001.001zm0 6a1.5 1.5 0 11-3.001-.001 1.5 1.5 0 013.001.001zm0 6a1.5 1.5 0 11-3.001-.001 1.5 1.5 0 013.001.001zm6.005-12a1.5 1.5 0 11-3.001-.001 1.5 1.5 0 013.001.001zm0 6a1.5 1.5 0 11-3.001-.001 1.5 1.5 0 013.001.001zm0 6a1.5 1.5 0 11-3.001-.001 1.5 1.5 0 013.001.001zm6.005-12a1.5 1.5 0 11-3.001-.001 1.5 1.5 0 013.001.001zm0 6a1.5 1.5 0 11-3.001-.001 1.5 1.5 0 013.001.001zm0 6a1.5 1.5 0 11-3.001-.001 1.5 1.5 0 013.001.001zm6.006-12a1.5 1.5 0 11-3.001-.001 1.5 1.5 0 013.001.001zm0 6a1.5 1.5 0 11-3.001-.001 1.5 1.5 0 013.001.001zm0 6a1.5 1.5 0 11-3.001-.001 1.5 1.5 0 013.001.001zm6.005-12a1.5 1.5 0 11-3.001-.001 1.5 1.5 0 013.001.001zm0 6a1.5 1.5 0 11-3.001-.001 1.5 1.5 0 013.001.001zm0 6a1.5 1.5 0 11-3.001-.001 1.5 1.5 0 013.001.001zm6.005-12a1.501 1.501 0 01-3.003 0 1.5 1.5 0 013.003 0zm0 6a1.501 1.501 0 01-3.003 0 1.5 1.5 0 013.003 0zm0 6a1.501 1.501 0 01-3.003 0 1.5 1.5 0 013.003 0zm6.005-12a1.501 1.501 0 01-3.003 0 1.5 1.5 0 013.003 0zm0 6a1.501 1.501 0 01-3.003 0 1.5 1.5 0 013.003 0zm0 6a1.501 1.501 0 01-3.003 0 1.5 1.5 0 013.003 0zm6.004-12a1.5 1.5 0 11-3.001-.001 1.5 1.5 0 013.001.001zm0 6a1.5 1.5 0 11-3.001-.001 1.5 1.5 0 013.001.001zm0 6a1.5 1.5 0 11-3.001-.001 1.5 1.5 0 013.001.001zm6.006-12a1.5 1.5 0 11-3.001-.001 1.5 1.5 0 013.001.001zm0 6a1.5 1.5 0 11-3.001-.001 1.5 1.5 0 013.001.001zm0 6a1.5 1.5 0 11-3.001-.001 1.5 1.5 0 013.001.001zm6.005-12a1.5 1.5 0 11-3.001-.001 1.5 1.5 0 013.001.001zm0 6a1.5 1.5 0 11-3.001-.001 1.5 1.5 0 013.001.001zm0 6a1.5 1.5 0 11-3.001-.001 1.5 1.5 0 013.001.001zm6.005-12a1.5 1.5 0 11-3.001-.001 1.5 1.5 0 013.001.001zm0 6a1.5 1.5 0 11-3.001-.001 1.5 1.5 0 013.001.001zm0 6a1.5 1.5 0 11-3.001-.001 1.5 1.5 0 013.001.001zm6.005-12a1.5 1.5 0 11-3.001-.001 1.5 1.5 0 013.001.001zm0 6a1.5 1.5 0 11-3.001-.001 1.5 1.5 0 013.001.001zm0 6a1.5 1.5 0 11-3.001-.001 1.5 1.5 0 013.001.001zm6.006-12a1.5 1.5 0 11-3.001-.001 1.5 1.5 0 013.001.001zm0 6a1.5 1.5 0 11-3.001-.001 1.5 1.5 0 013.001.001zm0 6a1.5 1.5 0 11-3.001-.001 1.5 1.5 0 013.001.001zm6.005-12a1.501 1.501 0 01-3.003 0 1.5 1.5 0 013.003 0zm0 6a1.501 1.501 0 01-3.003 0 1.5 1.5 0 013.003 0zm0 6a1.501 1.501 0 01-3.003 0 1.5 1.5 0 013.003 0zm6.005-12a1.501 1.501 0 01-3.003 0 1.5 1.5 0 013.003 0zm0 6a1.501 1.501 0 01-3.003 0 1.5 1.5 0 013.003 0zm0 6a1.501 1.501 0 01-3.003 0 1.5 1.5 0 013.003 0zm6.004-12a1.5 1.5 0 11-3.001-.001 1.5 1.5 0 013.001.001zm0 6a1.5 1.5 0 11-3.001-.001 1.5 1.5 0 013.001.001zm0 6a1.5 1.5 0 11-3.001-.001 1.5 1.5 0 013.001.001zm6.005-12a1.5 1.5 0 11-3.001-.001 1.5 1.5 0 013.001.001zm0 6a1.5 1.5 0 11-3.001-.001 1.5 1.5 0 013.001.001zm0 6a1.5 1.5 0 11-3.001-.001 1.5 1.5 0 013.001.001zm6.006-12a1.5 1.5 0 11-3.001-.001 1.5 1.5 0 013.001.001zm0 6a1.5 1.5 0 11-3.001-.001 1.5 1.5 0 013.001.001zm0 6a1.5 1.5 0 11-3.001-.001 1.5 1.5 0 013.001.001zm6.005-12a1.5 1.5 0 11-3.001-.001 1.5 1.5 0 013.001.001zm0 6a1.5 1.5 0 11-3.001-.001 1.5 1.5 0 013.001.001zm0 6a1.5 1.5 0 11-3.001-.001 1.5 1.5 0 013.001.001zm6.005-12a1.5 1.5 0 11-3.001-.001 1.5 1.5 0 013.001.001zm0 6a1.5 1.5 0 11-3.001-.001 1.5 1.5 0 013.001.001zm0 6a1.5 1.5 0 11-3.001-.001 1.5 1.5 0 013.001.001zm6.005-12a1.5 1.5 0 11-3.001-.001 1.5 1.5 0 013.001.001zm0 6a1.5 1.5 0 11-3.001-.001 1.5 1.5 0 013.001.001zm0 6a1.5 1.5 0 11-3.001-.001 1.5 1.5 0 013.001.001zm6.005-12a1.5 1.5 0 11-3.001-.001 1.5 1.5 0 013.001.001zm0 6a1.5 1.5 0 11-3.001-.001 1.5 1.5 0 013.001.001zm0 6a1.5 1.5 0 11-3.001-.001 1.5 1.5 0 013.001.001zm6.006-12a1.501 1.501 0 01-3.003 0 1.5 1.5 0 013.003 0zm0 6a1.501 1.501 0 01-3.003 0 1.5 1.5 0 013.003 0zm0 6a1.501 1.501 0 01-3.003 0 1.5 1.5 0 013.003 0zm6.004-12a1.5 1.5 0 11-3.001-.001 1.5 1.5 0 013.001.001zm0 6a1.5 1.5 0 11-3.001-.001 1.5 1.5 0 013.001.001zm0 6a1.5 1.5 0 11-3.001-.001 1.5 1.5 0 013.001.001zm6.005-12a1.5 1.5 0 11-3.001-.001 1.5 1.5 0 013.001.001zm0 6a1.5 1.5 0 11-3.001-.001 1.5 1.5 0 013.001.001zm0 6a1.5 1.5 0 11-3.001-.001 1.5 1.5 0 013.001.001zm6.005-12a1.5 1.5 0 11-3.001-.001 1.5 1.5 0 013.001.001zm0 6a1.5 1.5 0 11-3.001-.001 1.5 1.5 0 013.001.001zm0 6a1.5 1.5 0 11-3.001-.001 1.5 1.5 0 013.001.001zm6.005-12a1.5 1.5 0 11-3.001-.001 1.5 1.5 0 013.001.001zm0 6a1.5 1.5 0 11-3.001-.001 1.5 1.5 0 013.001.001zm0 6a1.5 1.5 0 11-3.001-.001 1.5 1.5 0 013.001.001zm6.006-12a1.5 1.5 0 11-3.001-.001 1.5 1.5 0 013.001.001zm0 6a1.5 1.5 0 11-3.001-.001 1.5 1.5 0 013.001.001zm0 6a1.5 1.5 0 11-3.001-.001 1.5 1.5 0 013.001.001zm6.005-12a1.5 1.5 0 11-3.001-.001 1.5 1.5 0 013.001.001zm0 6a1.5 1.5 0 11-3.001-.001 1.5 1.5 0 013.001.001zm0 6a1.5 1.5 0 11-3.001-.001 1.5 1.5 0 013.001.001zm6.005-12a1.5 1.5 0 11-3.001-.001 1.5 1.5 0 013.001.001zm0 6a1.5 1.5 0 11-3.001-.001 1.5 1.5 0 013.001.001zm0 6a1.5 1.5 0 11-3.001-.001 1.5 1.5 0 013.001.001zm6.005-12a1.501 1.501 0 01-3.003 0 1.5 1.5 0 013.003 0zm0 6a1.501 1.501 0 01-3.003 0 1.5 1.5 0 013.003 0zm0 6a1.501 1.501 0 01-3.003 0 1.5 1.5 0 013.003 0zm6.005-12a1.5 1.5 0 11-3.001-.001 1.5 1.5 0 013.001.001zm0 6a1.5 1.5 0 11-3.001-.001 1.5 1.5 0 013.001.001zm0 6a1.5 1.5 0 11-3.001-.001 1.5 1.5 0 013.001.001zm6.005-12a1.5 1.5 0 11-3.001-.001 1.5 1.5 0 013.001.001zm0 6a1.5 1.5 0 11-3.001-.001 1.5 1.5 0 013.001.001zm0 6a1.5 1.5 0 11-3.001-.001 1.5 1.5 0 013.001.001zm6.005-12a1.5 1.5 0 11-3.001-.001 1.5 1.5 0 013.001.001zm0 6a1.5 1.5 0 11-3.001-.001 1.5 1.5 0 013.001.001zm0 6a1.5 1.5 0 11-3.001-.001 1.5 1.5 0 013.001.001zm6.005-12a1.5 1.5 0 11-3.001-.001 1.5 1.5 0 013.001.001zm0 6a1.5 1.5 0 11-3.001-.001 1.5 1.5 0 013.001.001zm0 6a1.5 1.5 0 11-3.001-.001 1.5 1.5 0 013.001.001zm6.005-12a1.5 1.5 0 11-3.001-.001 1.5 1.5 0 013.001.001zm0 6a1.5 1.5 0 11-3.001-.001 1.5 1.5 0 013.001.001zm0 6a1.5 1.5 0 11-3.001-.001 1.5 1.5 0 013.001.001zm6.006-12a1.5 1.5 0 11-3.001-.001 1.5 1.5 0 013.001.001zm0 6a1.5 1.5 0 11-3.001-.001 1.5 1.5 0 013.001.001zm0 6a1.5 1.5 0 11-3.001-.001 1.5 1.5 0 013.001.001zm6.005-12a1.5 1.5 0 11-3.001-.001 1.5 1.5 0 013.001.001zm0 6a1.5 1.5 0 11-3.001-.001 1.5 1.5 0 013.001.001zm0 6a1.5 1.5 0 11-3.001-.001 1.5 1.5 0 013.001.001zm6.005-12a1.501 1.501 0 01-3.003 0 1.5 1.5 0 013.003 0zm0 6a1.501 1.501 0 01-3.003 0 1.5 1.5 0 013.003 0zm0 6a1.501 1.501 0 01-3.003 0 1.5 1.5 0 013.003 0zm6.004-12a1.5 1.5 0 11-3.001-.001 1.5 1.5 0 013.001.001zm0 6a1.5 1.5 0 11-3.001-.001 1.5 1.5 0 013.001.001zm0 6a1.5 1.5 0 11-3.001-.001 1.5 1.5 0 013.001.001z" fill="#C4C4C4"/></svg>