<svg width="23" height="23" fill="none" xmlns="http://www.w3.org/2000/svg"><path d="M8.817 7.714a1.797 1.797 0 11-2.54 2.541 1.797 1.797 0 012.54-2.541zm7.907 0a1.797 1.797 0 11-2.542 2.541 1.797 1.797 0 012.542-2.541z" fill="#FFBE9D"/><path d="M11.5 0C5.159 0 0 5.159 0 11.5S5.159 23 11.5 23 23 17.841 23 11.5 17.841 0 11.5 0zm0 20.125c-4.756 0-8.625-3.869-8.625-8.625S6.744 2.875 11.5 2.875s8.625 3.869 8.625 8.625-3.869 8.625-8.625 8.625z" fill="#FFBE9D"/><path fill="#FFBE9D" d="M8 14h7v2H8z"/></svg>