<svg width="27" height="27" fill="none" xmlns="http://www.w3.org/2000/svg"><path d="M2.25 5.625h3.988a3.375 3.375 0 006.649 0H24.75a.562.562 0 100-1.125H12.887a3.375 3.375 0 00-6.649 0H2.25a.563.563 0 000 1.125zm7.313-2.813a2.25 2.25 0 110 4.5 2.25 2.25 0 010-4.5zM24.75 12.937h-3.988a3.375 3.375 0 00-6.649 0H2.25a.563.563 0 000 1.125h11.863a3.375 3.375 0 006.649 0h3.988a.563.563 0 000-1.125zm-7.313 2.813a2.25 2.25 0 110-4.5 2.25 2.25 0 010 4.5zm7.313 5.625H12.887a3.375 3.375 0 00-6.649 0H2.25a.563.563 0 000 1.125h3.988a3.375 3.375 0 006.649 0H24.75a.563.563 0 000-1.125zM9.562 24.187a2.25 2.25 0 110-4.5 2.25 2.25 0 010 4.5z" fill="#000"/></svg>