<svg width="160" height="35" viewBox="0 0 160 35" fill="none" xmlns="http://www.w3.org/2000/svg">
<path fill-rule="evenodd" clip-rule="evenodd" d="M13.5572 35C12.4413 35 12.5069 34.9367 10.9315 34.0509C9.35607 33.165 7.25549 31.773 6.40214 30.8871C5.54878 30.0013 4.43285 28.4826 4.17028 27.7866C3.84207 26.964 3.38257 25.8884 3.57949 25.3189C3.71078 25.0025 3.97335 24.6861 4.23592 23.737C4.49849 22.9144 4.23592 21.3958 4.23592 20.8896C4.23592 20.51 3.90771 19.6241 3.57949 18.9281C3.25128 18.2953 2.06971 17.3462 1.61021 16.7134C1.15071 16.0807 0.297351 14.1192 0.166065 13.3598C0.0347791 12.6005 -0.0965067 10.3226 0.100422 9.56333C0.428636 7.98145 0.822493 7.09559 1.21635 6.33629C1.67585 5.32389 3.57949 3.42563 4.23592 2.9827C5.68007 2.03357 7.18985 1.21099 9.02785 0.704788C10.2751 0.325136 11.1941 0.198586 12.2444 0.13531C13.5572 -0.0545156 17.0363 -0.0545155 18.3491 0.198586C20.3184 0.641513 22.2877 1.40082 23.6006 2.34995C24.8478 3.29908 25.6355 4.05838 26.6201 5.64026C27.2766 6.65267 27.5391 7.91817 27.8674 8.8673C28.1956 9.87971 28.2612 12.474 28.2612 13.17C28.2612 13.8661 27.9986 14.6886 27.933 14.8152C27.8674 14.8785 27.2109 15.3847 27.2109 15.7643C27.2109 16.144 27.2109 16.2705 27.4079 16.5869C27.6048 16.9033 28.1299 18.0422 28.3925 18.3586C28.6551 18.675 29.4428 19.9405 29.6397 20.3834C29.8366 20.8263 30.1649 21.2693 29.9023 21.7755C29.6397 22.2817 28.852 22.1551 28.3269 22.2184C27.8674 22.2817 27.2109 22.2184 27.0796 22.6613C27.014 22.9144 27.2109 23.2308 27.2109 23.2308C27.6048 23.5472 27.4079 24.1799 27.014 24.3698C26.6858 24.5596 26.6201 24.5596 26.2919 24.6861C25.9637 24.8127 26.0294 24.8127 26.2263 25.1291C26.4232 25.4454 26.4232 25.8251 26.3576 26.0782C26.2919 26.3313 25.8324 26.268 25.4386 26.3946C25.1104 26.5211 24.7821 26.6477 24.7821 27.0906C24.7821 27.3437 24.9791 27.9132 24.7821 28.4826C24.5852 28.9888 23.9288 29.6849 23.338 29.938C22.7472 30.1911 21.5656 30.1911 20.9092 30.0645C20.2528 29.938 19.1369 29.5583 18.6774 29.4318C18.2835 29.3052 17.8896 29.4951 17.3645 30.0013C16.8394 30.5075 16.2486 31.4566 15.8547 32.0893C15.4609 32.7221 14.7388 33.861 14.3449 34.2407C14.2136 34.8102 13.5572 35 13.5572 35Z" fill="#35B34A"/>
<path fill-rule="evenodd" clip-rule="evenodd" d="M6.1097 7.81672H8.88631V16.7556H9.66118V19.0707H11.0818C11.2109 18.8778 11.3401 18.7492 11.4046 18.6206L11.4692 18.5563H10.1778V16.0482H9.40289V7.36656H8.17601V1.7717C7.65943 1.96463 7.20743 2.15756 6.75542 2.41479H7.78858V3.50804H6.69085V2.41479C6.36799 2.60772 6.1097 2.80064 5.85141 2.99357C3.97881 4.47267 3.65595 5.18006 3.13937 6.40193C3.07479 6.53055 3.07479 6.59486 3.01022 6.72347C2.8165 7.10932 2.55821 7.62379 2.29993 8.07396C1.97706 8.65273 1.6542 9.23151 1.58963 9.55305C1.26677 10.6463 1.20219 12.6399 1.71877 13.4759C1.84792 13.6688 2.04164 13.8617 2.29993 14.0547C2.17078 13.8617 2.04164 13.6045 2.04164 13.283C2.04164 12.7042 2.55821 12.1897 3.13937 12.1897C3.72052 12.1897 4.17252 12.5756 4.2371 13.1543H7.65943V12.6399H7.07828V11.3537H7.65943V10.7749H4.2371C4.10795 11.2894 3.72052 11.6109 3.13937 11.6109C2.55821 11.6109 2.04164 11.0965 2.04164 10.5177C2.04164 9.93891 2.55821 9.42444 3.13937 9.42444C3.65595 9.42444 4.10795 9.81029 4.2371 10.2605H8.11144V11.8039H7.53029V12.1897H8.11144V13.6688H4.17252C4.04338 14.119 3.59137 14.4405 3.13937 14.4405C3.07479 14.4405 3.01022 14.4405 2.88108 14.4405C3.07479 14.5691 3.33308 14.6334 3.5268 14.7621C3.91423 14.955 4.2371 15.3408 4.43081 15.7267H7.14285V17.5273H9.01545V20.3569C9.27374 20.6141 9.53203 20.8071 9.85489 20.8071C9.91947 20.8071 9.98404 20.8071 10.0486 20.8071C10.1778 20.6141 10.5006 20.0354 10.8881 19.5209H9.40289V17.0772H8.62802V8.13826H6.1097C6.04512 8.65273 5.59312 9.03859 5.01197 9.03859C4.43081 9.03859 3.91423 8.52412 3.91423 7.94534C3.91423 7.36656 4.43081 6.85209 5.01197 6.85209C5.59312 6.85209 6.04512 7.23794 6.1097 7.81672ZM22.9631 9.48875V6.46624L23.8025 6.40193C24.1254 6.9164 24.3837 7.30225 24.4482 7.49518V7.6881C24.5774 8.45981 24.7711 10.2605 24.4482 10.9035C24.3191 11.0965 24.19 11.3537 24.0608 11.5466H21.8008V13.3473C21.7362 13.3473 21.6716 13.3473 21.6716 13.3473C21.4133 13.283 21.0905 13.283 20.8322 13.283C20.3802 13.283 20.1219 13.3473 19.9282 13.4759H14.5041V10.3248H18.3784V4.15113H15.6018V1.51447C16.6996 1.64309 18.0556 1.96463 18.895 2.28617V11.6752H16.8287C16.7641 11.2251 16.3767 10.9035 15.8601 10.9035C15.3435 10.9035 14.8915 11.3537 14.8915 11.8682C14.8915 12.3826 15.3435 12.8328 15.8601 12.8328C16.3121 12.8328 16.6996 12.5113 16.8287 12.0611H19.2179V2.41479C19.4116 2.4791 19.6053 2.60772 19.799 2.67203C20.5093 2.99357 21.2196 3.37942 21.6716 3.76527C21.9299 4.02251 22.4465 4.60129 22.9631 5.24437H21.7362V9.42444H21.1551V11.4823C20.9613 11.3537 20.7676 11.2251 20.5093 11.2251C19.9928 11.2251 19.5408 11.6752 19.5408 12.1897C19.5408 12.7042 19.9928 13.1543 20.5093 13.1543C20.8968 13.1543 21.2196 12.9614 21.3488 12.6399H21.4133V12.3826C21.4133 12.3183 21.4133 12.254 21.4133 12.1897C21.4133 12.1254 21.4133 12.0611 21.4133 11.9968V9.68167H21.9945V5.50161H23.1568C23.2859 5.69453 23.4797 5.88746 23.6088 6.08039L22.6402 6.14469V9.48875C22.1882 9.55306 21.8654 9.93891 21.8654 10.4534C21.8654 10.9678 22.3174 11.418 22.8339 11.418C23.3505 11.418 23.8025 10.9678 23.8025 10.4534C23.738 9.93891 23.4151 9.55306 22.9631 9.48875ZM23.738 12.0611C23.6088 12.1897 23.4797 12.3183 23.3505 12.4469C22.9631 12.8328 22.5757 13.09 22.2528 13.2186V11.9968H23.738V12.0611ZM24.19 11.9968C24.3837 11.7396 24.5774 11.418 24.7711 11.0965C25.1585 10.3891 24.9648 8.58842 24.8357 7.6881V7.49518C24.7065 6.65916 22.3819 4.08682 21.8654 3.57235C21.4133 3.12219 20.6385 2.73633 19.9282 2.41479C19.7345 2.35048 19.5408 2.22187 19.347 2.15756C18.2493 1.64309 15.9247 1.19293 14.6332 1.12862C14.0521 1 13.3418 1 12.6315 1C11.2755 1 10.0486 1.06431 9.40289 1.19293C8.17601 1.38585 6.69085 2.02894 5.72226 2.73633C3.78509 4.27974 3.46223 5.05145 2.88108 6.27331C2.8165 6.40193 2.8165 6.53055 2.75193 6.59486C2.55821 6.98071 2.29993 7.49518 2.04164 7.94534C1.71877 8.58843 1.39591 9.1672 1.26677 9.48875C0.943905 10.582 0.814761 12.7042 1.46048 13.6688C1.84792 14.2476 2.68736 14.6334 3.39766 14.955C3.97881 15.2122 4.43081 16.1768 4.43081 16.3698C4.43081 16.7556 5.65769 18.1704 6.43256 18.492C6.62628 18.5563 6.94914 18.6206 7.20743 18.6849C7.46572 18.7492 7.85315 18.8135 7.91772 18.8778V18.9421C7.91772 19.1994 7.91772 19.5852 8.36973 19.9711C8.4343 20.0354 8.49887 20.0997 8.56345 20.164V20.2283H8.62802L8.69259 20.2926C9.01545 20.6141 9.40289 21 9.91947 21C10.0486 21 10.1132 21 10.2423 20.9357H10.3069V20.8714C10.3069 20.8714 11.3401 19.2637 11.6629 18.8135C11.7275 18.6849 11.8566 18.6206 11.9212 18.492H12.0504V18.4277C12.1149 18.3633 12.1149 18.3633 12.1795 18.299C12.5024 18.0418 12.8252 17.7846 12.8898 17.463C12.9544 17.0772 13.9875 16.3055 14.3104 16.2412C14.6332 16.1769 15.3435 16.1769 16.0538 16.2412C16.5704 16.3055 16.8287 15.9839 17.087 15.7267C17.2161 15.5338 17.4099 15.4051 17.6036 15.3408H17.6682H17.7327C18.1202 15.2765 18.7013 14.955 19.1533 14.6334H19.2179V14.5691C19.347 14.4405 19.5408 14.3119 19.6053 14.1833C19.799 13.926 19.9282 13.7974 19.9282 13.7974C19.9928 13.7974 19.9928 13.7974 20.0573 13.7331C20.1219 13.6688 20.3802 13.6045 20.7676 13.6045C21.0259 13.6045 21.2842 13.6045 21.5425 13.6688C21.6071 13.6688 21.6716 13.6688 21.7362 13.6688C22.4465 13.6688 23.2859 12.9614 23.5442 12.6399C23.8025 12.4469 23.9962 12.254 24.19 11.9968ZM19.6053 13.7331C19.5408 13.7974 19.4762 13.8617 19.4116 13.926C19.347 13.9904 19.2825 14.0547 19.2179 14.119H13.7938V9.48875H17.6682V4.98714H14.7624V1.38585C14.8915 1.38585 15.0853 1.38585 15.2144 1.45016V4.47267H17.991V10.0032H14.1167V13.7331H19.6053ZM18.6367 14.6334C18.3139 14.8264 17.9264 15.0193 17.6682 15.0193C17.6036 15.0193 17.6036 15.0193 17.539 15.0836H12.8898L12.9544 12.5756H12.6961V8.58843H16.8287V5.95177H13.9875V1.32154C14.1167 1.32154 14.2458 1.32154 14.375 1.32154V5.37299H17.2807V8.97428H13.4064V14.5691H18.6367V14.6334ZM17.0224 15.4051C16.9579 15.4695 16.8933 15.5338 16.8287 15.5981C16.5704 15.8553 16.3767 16.0482 16.0538 15.9839C15.6664 15.9196 15.3435 15.9196 15.0207 15.9196C14.7624 15.9196 14.5041 15.9196 14.3104 15.9839V15.9196H12.0504V13.8617H11.4692V7.88103H12.6961V1.32154C13.0189 1.32154 13.3418 1.32154 13.6647 1.32154V6.209H16.5058V8.20257H12.3732V12.8328H12.6315L12.5669 15.3408H17.0224V15.4051ZM4.6891 16.0482C4.75368 16.1768 4.75368 16.3055 4.75368 16.3698C4.75368 16.5627 5.85141 17.8489 6.5617 18.1704C6.69085 18.2347 7.01371 18.299 7.272 18.299C7.78858 18.3633 8.24058 18.4277 8.24058 18.7492C8.24058 18.8135 8.24058 18.8135 8.24058 18.8778C8.24058 19.135 8.24058 19.3923 8.56345 19.6495V17.7203H6.69085V15.9196H4.6891V16.0482ZM13.7292 16.2412C13.5355 16.3698 13.2772 16.5627 13.0835 16.7556H11.5338V14.8264H10.6298V7.10932H11.5338V1.32154C11.7921 1.32154 12.1149 1.32154 12.3732 1.32154V7.55949H11.1463V14.119H11.7275V16.1769H13.7292V16.2412ZM12.7607 17.0772C12.6315 17.2058 12.5669 17.3344 12.5669 17.463C12.5024 17.656 12.3086 17.9132 12.0504 18.1061H10.6943V15.5981H9.91947V6.85209H8.69259V1.64309C8.88631 1.57878 9.08002 1.57878 9.20917 1.51447V2.41479H10.3069V1.38585C10.5652 1.38585 10.8235 1.38585 11.0818 1.32154V6.78778H10.1778V15.1479H11.0818V17.0772H12.7607ZM6.62627 5.88746C6.62627 6.1447 6.43256 6.33762 6.17427 6.33762H5.52854C5.27025 6.33762 5.07654 6.1447 5.07654 5.88746C5.07654 5.63023 5.27025 5.4373 5.52854 5.4373H6.17427C6.36799 5.37299 6.62627 5.63023 6.62627 5.88746ZM6.62627 4.40836C6.62627 4.6656 6.43256 4.85852 6.17427 4.85852H5.52854C5.20568 4.85852 5.01197 4.6656 5.01197 4.40836C5.01197 4.15113 5.20568 3.9582 5.46397 3.9582H6.1097C6.36799 3.9582 6.62627 4.15113 6.62627 4.40836ZM14.5687 7.23794C14.5687 7.49518 14.375 7.6881 14.1167 7.6881H13.4709C13.2127 7.6881 13.0189 7.49518 13.0189 7.23794C13.0189 6.98071 13.2127 6.78778 13.4709 6.78778H14.1167C14.375 6.78778 14.5687 6.98071 14.5687 7.23794ZM17.8619 2.80064C17.8619 3.05788 17.6682 3.2508 17.4099 3.2508H16.7641C16.5058 3.2508 16.3121 3.05788 16.3121 2.80064C16.3121 2.54341 16.5058 2.35048 16.7641 2.35048H17.4099C17.6682 2.35048 17.8619 2.54341 17.8619 2.80064ZM9.1446 6.209H10.436V4.98714H9.1446V6.209ZM9.1446 4.40836H10.436V3.1865H9.1446V4.40836ZM14.827 7.81672H16.1184V6.72347H14.827V7.81672ZM19.5408 9.93891H20.6385V8.84566H19.5408V9.93891ZM19.5408 7.6881H20.6385V6.59486H19.5408V7.6881ZM19.5408 5.56592H20.6385V4.40836H19.5408V5.56592ZM5.01197 7.10932C4.55996 7.10932 4.2371 7.43087 4.2371 7.88103C4.2371 8.33119 4.55996 8.65273 5.01197 8.65273C5.46397 8.65273 5.78683 8.33119 5.78683 7.88103C5.78683 7.49518 5.46397 7.10932 5.01197 7.10932ZM3.13937 9.68167C2.68736 9.68167 2.3645 10.0032 2.3645 10.4534C2.3645 10.9035 2.68736 11.2251 3.13937 11.2251C3.59137 11.2251 3.91423 10.9035 3.91423 10.4534C3.91423 10.0675 3.5268 9.68167 3.13937 9.68167ZM3.13937 12.5113C2.68736 12.5113 2.3645 12.8328 2.3645 13.283C2.3645 13.7331 2.68736 14.0547 3.13937 14.0547C3.59137 14.0547 3.91423 13.7331 3.91423 13.283C3.91423 12.8971 3.5268 12.5113 3.13937 12.5113ZM22.7694 9.81029C22.4465 9.81029 22.1236 10.0675 22.1236 10.4534C22.1236 10.7749 22.3819 11.0965 22.7694 11.0965C23.0922 11.0965 23.4151 10.8392 23.4151 10.4534C23.4151 10.0675 23.1568 9.81029 22.7694 9.81029ZM20.3802 11.5466C20.0573 11.5466 19.7345 11.8039 19.7345 12.1897C19.7345 12.5113 19.9928 12.8328 20.3802 12.8328C20.7031 12.8328 21.0259 12.5756 21.0259 12.1897C21.0259 11.8039 20.7676 11.5466 20.3802 11.5466ZM15.8601 11.1608C15.5373 11.1608 15.2144 11.418 15.2144 11.8039C15.2144 12.1254 15.4727 12.4469 15.8601 12.4469C16.183 12.4469 16.5058 12.1897 16.5058 11.8039C16.5058 11.418 16.183 11.1608 15.8601 11.1608Z" fill="white"/>
<path fill-rule="evenodd" clip-rule="evenodd" d="M47.3818 8.32407C47.8423 8.51852 48.237 8.77778 48.566 9.10185C48.895 9.42593 49.1581 9.81481 49.3555 10.2685C49.5529 10.7222 49.6844 11.1759 49.6844 11.6944V12.7963C49.6844 13.0556 49.5529 13.25 49.2897 13.3148L46.5923 14.0278C46.3291 14.0926 46.1975 14.0278 46.1975 13.7037V11.7593C46.1975 11.5648 46.1317 11.3704 46.0001 11.2407C45.8686 11.1111 45.6712 11.0463 45.4738 11.0463H45.2106C45.0133 11.0463 44.8159 11.1111 44.6843 11.2407C44.5527 11.3704 44.4869 11.5648 44.4869 11.7593V14.4167C44.4869 14.6111 44.5527 14.8056 44.6185 15C44.6843 15.1296 44.8159 15.3241 44.9475 15.4537L48.8292 18.3704C49.1581 18.6296 49.3555 18.9537 49.4213 19.213C49.4871 19.4722 49.5529 19.7963 49.6187 20.1852V25.2407C49.6187 25.7593 49.4871 26.213 49.2897 26.6667C49.0923 27.1204 48.8292 27.5093 48.5002 27.8333C48.1713 28.1574 47.7765 28.4167 47.316 28.6111C46.8554 28.8056 46.3949 28.9352 45.8686 28.9352H44.7501C44.2238 28.9352 43.7632 28.8056 43.3027 28.6111C42.8422 28.4167 42.4474 28.1574 42.1185 27.8333C41.7895 27.5093 41.5263 27.1204 41.329 26.6667C41.1316 26.213 41 25.7593 41 25.2407V22.3889C41 22.1296 41.1316 21.9352 41.3947 21.8704L44.0922 21.1574C44.3554 21.0926 44.4869 21.1574 44.4869 21.4815V25.1111C44.4869 25.3056 44.5527 25.5 44.6843 25.6296C44.8159 25.7593 45.0133 25.8241 45.2106 25.8241H45.4738C45.6712 25.8241 45.8686 25.7593 46.0001 25.6296C46.1317 25.5 46.1975 25.3056 46.1975 25.1111V21.2222C46.1975 20.963 46.1317 20.7685 46.0659 20.5741C46.0001 20.3796 45.8686 20.1852 45.737 20.0556L41.8553 17.1389C41.5263 16.8796 41.329 16.6204 41.1974 16.2963C41.0658 16.037 41 15.6481 41 15.1944V11.6944C41 11.1759 41.1316 10.7222 41.329 10.2685C41.5263 9.81481 41.7895 9.42593 42.1185 9.10185C42.4474 8.77778 42.8422 8.51852 43.3027 8.32407C43.7632 8.12963 44.2238 8 44.7501 8H45.8686C46.3949 8 46.9212 8.12963 47.3818 8.32407ZM61.9216 11.3056C61.9874 11.3704 61.9874 11.5 61.9216 11.5648L57.8426 19.0833L61.8558 28.4167C61.9216 28.5463 61.8558 28.6111 61.8558 28.6759C61.79 28.7407 61.7243 28.8056 61.5927 28.8056H58.6321C58.5005 28.8056 58.4347 28.7407 58.3031 28.6759C58.1715 28.6111 58.1057 28.5463 58.1057 28.4167L55.9346 23.5556L55.4083 24.5278V28.4167C55.4083 28.6759 55.2767 28.8056 55.0135 28.8056H52.3819C52.1187 28.8056 51.9871 28.6759 51.9871 28.4167V11.5648C51.9871 11.3056 52.1187 11.1759 52.3819 11.1759H55.0135C55.2767 11.1759 55.4083 11.3056 55.4083 11.5648V16.6852L58.1715 11.5C58.3031 11.2407 58.4347 11.1759 58.7636 11.1759H61.7243C61.8558 11.1759 61.9216 11.1759 61.9216 11.3056ZM67.4481 28.4167C67.4481 28.6759 67.3165 28.8056 67.0534 28.8056H64.4217C64.1585 28.8056 64.027 28.6759 64.027 28.4167V11.5648C64.027 11.3056 64.1585 11.1759 64.4217 11.1759H67.0534C67.3165 11.1759 67.4481 11.3056 67.4481 11.5648V28.4167ZM77.9089 25.7593V28.3519C77.9089 28.6111 77.7773 28.7407 77.5142 28.7407H70.7377C70.4745 28.7407 70.3429 28.6111 70.3429 28.3519V11.5C70.3429 11.2407 70.4745 11.1111 70.7377 11.1111H73.3693C73.6325 11.1111 73.7641 11.2407 73.7641 11.5V25.3056H77.4484C77.7773 25.3704 77.9089 25.5 77.9089 25.7593ZM87.7776 25.7593V28.3519C87.7776 28.6111 87.646 28.7407 87.3829 28.7407H80.6064C80.3432 28.7407 80.2116 28.6111 80.2116 28.3519V11.5C80.2116 11.2407 80.3432 11.1111 80.6064 11.1111H83.238C83.5012 11.1111 83.6328 11.2407 83.6328 11.5V25.3056H87.3171C87.646 25.3704 87.7776 25.5 87.7776 25.7593ZM97.1858 8.64815V11.2407C97.1858 11.5 97.0542 11.6296 96.791 11.6296H93.3699V15.8426H96.3305C96.5937 15.8426 96.7252 15.9722 96.7252 16.2315V18.8241C96.7252 19.0833 96.5937 19.213 96.3305 19.213H93.3699V28.287C93.3699 28.5463 93.2383 28.6759 92.9751 28.6759H90.3435C90.0803 28.6759 89.9487 28.5463 89.9487 28.287V8.64815C89.9487 8.38889 90.0803 8.25926 90.3435 8.25926H96.8568C97.0542 8.19444 97.1858 8.32407 97.1858 8.64815ZM107.318 28.4167C107.383 28.6759 107.252 28.8056 106.989 28.8056H104.291C104.028 28.8056 103.896 28.6759 103.831 28.4167L103.568 25.5H101.725L101.462 28.4167C101.396 28.6759 101.265 28.8056 101.002 28.8056H98.3042C98.0411 28.8056 97.9095 28.6759 97.9753 28.4167L100.212 11.5648C100.278 11.3056 100.41 11.1759 100.673 11.1759H104.62C104.883 11.1759 105.081 11.3056 105.081 11.5648L107.318 28.4167ZM115.344 11.2407C115.805 11.4352 116.199 11.6944 116.528 12.0185C116.857 12.3426 117.121 12.7315 117.318 13.1852C117.515 13.6389 117.647 14.0926 117.647 14.6111V16.4259C117.647 16.6852 117.515 16.8796 117.252 16.9444L114.555 17.3333C114.292 17.3981 114.16 17.3333 114.16 17.0093V14.7407C114.16 14.5463 114.094 14.3519 113.963 14.2222C113.831 14.0926 113.634 14.0278 113.436 14.0278H113.173C112.976 14.0278 112.778 14.0926 112.647 14.2222C112.515 14.3519 112.449 14.5463 112.449 14.7407V25.1111C112.449 25.3056 112.515 25.5 112.647 25.6296C112.778 25.7593 112.976 25.8241 113.173 25.8241H113.436C113.634 25.8241 113.831 25.7593 113.963 25.6296C114.094 25.5 114.16 25.3056 114.16 25.1111V21.6111C114.16 21.3519 114.292 21.2222 114.555 21.287L117.252 21.6111C117.515 21.6759 117.647 21.8704 117.647 22.1296V25.2407C117.647 25.7593 117.515 26.213 117.318 26.6667C117.121 27.1204 116.857 27.5093 116.528 27.8333C116.199 28.1574 115.805 28.4167 115.344 28.6111C114.884 28.8056 114.423 28.9352 113.897 28.9352H112.778C112.252 28.9352 111.791 28.8056 111.331 28.6111C110.87 28.4167 110.476 28.1574 110.147 27.8333C109.818 27.5093 109.555 27.1204 109.357 26.6667C109.16 26.213 109.028 25.7593 109.028 25.2407V14.6759C109.028 14.1574 109.16 13.7037 109.357 13.25C109.555 12.7963 109.818 12.4074 110.147 12.0833C110.476 11.7593 110.87 11.5 111.331 11.3056C111.791 11.1111 112.252 10.9815 112.778 10.9815H113.897C114.423 10.9167 114.884 11.0463 115.344 11.2407ZM127.252 11.5648V14.1574C127.252 14.4167 127.121 14.5463 126.858 14.5463H124.752V28.3519C124.752 28.6111 124.621 28.7407 124.358 28.7407H121.726C121.594 28.7407 121.529 28.6759 121.463 28.6111C121.397 28.5463 121.331 28.4167 121.331 28.287V14.6111H119.226C118.963 14.6111 118.831 14.4815 118.831 14.2222V11.6296C118.831 11.3704 118.963 11.2407 119.226 11.2407H126.923C127.121 11.1759 127.252 11.3056 127.252 11.5648ZM137.45 25.3056C137.45 25.8241 137.318 26.2778 137.121 26.7315C136.924 27.1852 136.661 27.5741 136.332 27.8981C136.003 28.2222 135.608 28.4815 135.147 28.6759C134.687 28.8704 134.226 29 133.7 29H132.581C132.055 29 131.595 28.8704 131.134 28.6759C130.674 28.4815 130.279 28.2222 129.95 27.8981C129.621 27.5741 129.358 27.1852 129.16 26.7315C128.963 26.2778 128.831 25.8241 128.831 25.3056V14.6759C128.831 14.1574 128.963 13.7037 129.16 13.25C129.358 12.7963 129.621 12.4074 129.95 12.0833C130.279 11.7593 130.674 11.5 131.134 11.3056C131.595 11.1111 132.055 10.9815 132.581 10.9815H133.7C134.226 10.9815 134.687 11.1111 135.147 11.3056C135.608 11.5 136.003 11.7593 136.332 12.0833C136.661 12.4074 136.924 12.7963 137.121 13.25C137.318 13.7037 137.45 14.1574 137.45 14.6759V25.3056ZM143.305 28.4167C143.305 28.6759 143.174 28.8056 142.845 28.8056H140.213C139.95 28.8056 139.819 28.6759 139.819 28.4167V11.5648C139.819 11.3056 139.95 11.1759 140.213 11.1759H144.687C145.213 11.1759 145.674 11.3056 146.134 11.5C146.595 11.6944 146.99 11.9537 147.319 12.2778C147.648 12.6019 147.911 12.9907 148.108 13.4444C148.306 13.8981 148.437 14.3519 148.437 14.8704V18.5C148.437 19.213 148.24 19.8611 147.779 20.4444C147.319 21.0278 146.792 21.4815 146.2 21.8056L149.029 28.4167C149.095 28.6759 148.964 28.8056 148.7 28.8056H146.003C145.871 28.8056 145.74 28.7407 145.674 28.6759C145.542 28.6111 145.477 28.4815 145.477 28.3519L143.305 22.9074V28.4167ZM159.951 11.3056C160.016 11.3704 160.016 11.5 159.951 11.5648L156.53 22V28.4167C156.53 28.6759 156.398 28.8056 156.135 28.8056H153.437C153.174 28.8056 153.043 28.6759 153.043 28.4167V22L149.556 11.5648C149.49 11.4352 149.556 11.3704 149.556 11.3056C149.621 11.2407 149.687 11.1759 149.819 11.1759H152.977C153.24 11.1759 153.437 11.3056 153.437 11.5648L154.622 17.2037H154.753L155.937 11.5648C156.003 11.3056 156.135 11.1759 156.398 11.1759H159.556C159.819 11.1759 159.885 11.1759 159.951 11.3056ZM103.304 22.1944L102.712 15.713H102.449L101.857 22.1944H103.304ZM133.897 14.8056C133.897 14.6111 133.832 14.4167 133.7 14.287C133.568 14.1574 133.371 14.0926 133.174 14.0926H132.91C132.713 14.0926 132.516 14.1574 132.384 14.287C132.253 14.4167 132.187 14.6111 132.187 14.8056V25.1759C132.187 25.3704 132.253 25.5648 132.384 25.6944C132.516 25.8241 132.713 25.8889 132.91 25.8889H133.174C133.371 25.8889 133.568 25.8241 133.7 25.6944C133.832 25.5648 133.897 25.3704 133.897 25.1759V14.8056ZM143.305 19.0185H144.292C144.49 19.0185 144.687 18.9537 144.819 18.8241C144.95 18.6944 145.016 18.5 145.016 18.3056V15C145.016 14.8056 144.95 14.6111 144.819 14.4815C144.687 14.3519 144.49 14.287 144.292 14.287H143.305V19.0185Z" fill="black"/>
</svg>
