<svg width="24" height="24" fill="none" xmlns="http://www.w3.org/2000/svg"><path d="M3.748 21.752a1.516 1.516 0 01-1.5-1.501V9.748c0-.818.682-1.5 1.5-1.5h2.253c.556 0 1.042.319 1.301.777.506-.31 1.004-.492 1.324-.677.755-.436 1.138-1.662 1.317-2.94.09-.639.137-1.253.216-1.765.039-.256.077-.483.183-.73.052-.125.121-.26.266-.4a1 1 0 01.642-.266c1.112 0 2.024.435 2.607 1.102.583.666.855 1.502 1.002 2.332.24 1.354.148 2.501.102 3.32h4.537a2.264 2.264 0 012.254 2.249c0 .437-.124.767-.282 1.278a46.58 46.58 0 01-.61 1.789c-.471 1.32-1.033 2.818-1.4 3.92-.147.44-.337.901-.681 1.3a2.052 2.052 0 01-1.528.714H8.248c-.262 0-.511-.055-.747-.14v.14c0 .818-.682 1.501-1.5 1.501H3.748zm0-1.501h2.253V9.748H3.748v10.503zm4.5-1.5h9.003c.201 0 .26-.04.392-.194.133-.153.278-.45.395-.798.382-1.149.944-2.642 1.41-3.946.233-.652.441-1.256.587-1.728.147-.473.217-.898.217-.835a.734.734 0 00-.754-.747h-5.314a.751.751 0 01-.753-.755c0-.886.192-2.468-.044-3.808-.118-.67-.34-1.235-.66-1.6-.235-.27-.569-.482-1.072-.564-.075.428-.126 1.158-.222 1.843-.196 1.397-.564 3.166-2.06 4.03-.556.32-1.095.508-1.418.73-.323.223-.454.343-.454.87v6.749c0 .428.319.753.747.753z" fill="#43C59E"/></svg>