<svg width="111" height="40" fill="none" xmlns="http://www.w3.org/2000/svg"><path fill-rule="evenodd" clip-rule="evenodd" d="M110.222 0c-.592 1.24-1.098 2.333-1.633 3.412-2.464 4.955-4.906 9.92-7.421 14.849-.618 1.21-.638 2.223-.013 3.452 2.844 5.584 5.606 11.21 8.392 16.822.211.428.393.874.66 1.465H0V0h110.222z" fill="#AD475C"/><path d="M20.582 31.015l-5.038-6.996h-.983v6.997H9V9h8.694c2.396 0 4.322.59 5.776 1.772 1.474 1.182 2.242 3.006 2.304 5.473 0 3.897-1.424 6.302-4.27 7.214l5.929 7.556h-6.851zM14.561 19.23h3.225c1.086 0 1.854-.414 2.304-1.244.451-.85.451-1.689 0-2.518-.45-.85-1.218-1.275-2.304-1.275h-3.225v5.037zm30.244-3.513c-.02.6-.225 1.254-.614 1.959a3.741 3.741 0 01-1.628 1.617c1.331.684 2.222 1.596 2.672 2.736.451 1.14.584 2.239.4 3.296-.594 3.794-3.175 5.69-7.742 5.69h-8.878V9h8.724c2.13 0 3.85.612 5.162 1.835 1.33 1.202 1.966 2.83 1.904 4.882zm-10.26 1.896h3.194c.84 0 1.434-.32 1.782-.964.369-.663.38-1.316.031-1.959-.348-.663-.952-.995-1.813-.995h-3.195v3.918zm0 8.52h3.194c1.045 0 1.772-.373 2.182-1.119.43-.767.43-1.524 0-2.27s-1.157-1.12-2.181-1.12h-3.196v4.51zm12.84 1.96c0-.85.297-1.576.89-2.177a2.913 2.913 0 012.151-.902c.84 0 1.557.3 2.15.902.615.601.922 1.327.922 2.177 0 .87-.307 1.616-.921 2.238a2.913 2.913 0 01-2.15.902c-.84 0-1.557-.3-2.151-.902a3.127 3.127 0 01-.891-2.238zm20.344 2.922l-5.038-6.996h-.983v6.997h-5.561V9h8.694c2.396 0 4.322.59 5.776 1.772 1.474 1.182 2.242 3.006 2.304 5.473 0 3.897-1.424 6.302-4.27 7.214l5.929 7.556h-6.851zM61.708 19.23h3.225c1.086 0 1.854-.414 2.304-1.244.451-.85.451-1.689 0-2.518-.45-.85-1.218-1.275-2.304-1.275h-3.226v5.037zM81.6 9v14.646c0 .663.214 1.233.644 1.71.43.456.942.736 1.537.84a5.5 5.5 0 001.843 0 2.723 2.723 0 001.567-.84c.43-.477.645-1.047.645-1.71V9h5.56v14.646c0 1.12-.204 2.145-.614 3.078-.39.912-.922 1.67-1.598 2.27a10.465 10.465 0 01-2.334 1.555 7.782 7.782 0 01-2.735.746c-.942.083-1.894.083-2.857 0a8.067 8.067 0 01-2.765-.746 10.746 10.746 0 01-2.304-1.555c-.655-.6-1.177-1.358-1.567-2.27-.389-.933-.583-1.959-.583-3.078V9h5.56z" fill="#fff"/></svg>