<svg width="16" height="16" fill="none" xmlns="http://www.w3.org/2000/svg"><path d="M8 .32C3.766.32.32 3.766.32 8c0 4.235 3.446 7.68 7.68 7.68 4.235 0 7.68-3.445 7.68-7.68C15.68 3.766 12.235.32 8 .32zm0 14.72A7.048 7.048 0 01.96 8 7.048 7.048 0 018 .96 7.048 7.048 0 0115.04 8 7.048 7.048 0 018 15.04z" fill="#000"/><path d="M7.36 4.16h1.28c.882 0 1.6.718 1.6 1.6h.64a2.243 2.243 0 00-2.24-2.24h-.32v-.96h-.64v.96h-.32a2.243 2.243 0 00-2.24 2.24v.32a2.243 2.243 0 002.24 2.24h1.28c.882 0 1.6.718 1.6 1.6v.32c0 .882-.718 1.6-1.6 1.6H7.36c-.882 0-1.6-.718-1.6-1.6h-.64a2.243 2.243 0 002.24 2.24h.32v.96h.64v-.96h.32a2.243 2.243 0 002.24-2.24v-.32a2.243 2.243 0 00-2.24-2.24H7.36c-.882 0-1.6-.718-1.6-1.6v-.32c0-.882.718-1.6 1.6-1.6z" fill="#000"/></svg>