<svg width="67" height="7" fill="none" xmlns="http://www.w3.org/2000/svg"><path d="M11.67.902h1.44v1.83h2.465V.901h1.44v4.73h-1.44V3.713H13.11v1.919h-1.44V.902zm9.272 4.838c-.393 0-.768-.048-1.124-.143a2.816 2.816 0 01-.916-.446 2.188 2.188 0 01-.621-.759 2.413 2.413 0 01-.23-1.08v-.178c0-.393.074-.735.219-1.027a2.01 2.01 0 01.6-.723 2.59 2.59 0 01.883-.437 3.711 3.711 0 011.08-.152c.908 0 1.599.197 2.071.59.473.392.71.96.71 1.704v.5h-4.09c.007.208.05.39.13.544.08.149.186.271.317.366.13.095.28.167.447.214.175.042.349.063.524.063.37 0 .65-.045.84-.134a.804.804 0 00.403-.393h1.32a1.657 1.657 0 01-.862 1.116c-.458.25-1.025.375-1.701.375zm-.055-3.98a2.38 2.38 0 00-.502.053c-.16.036-.301.092-.425.17a.94.94 0 00-.305.312.965.965 0 00-.131.473h2.693a1.086 1.086 0 00-.12-.491.765.765 0 00-.283-.312 1.105 1.105 0 00-.415-.161c-.16-.03-.33-.045-.512-.045zm5.063.124h-1.843V.902h5.126v.982H27.39v3.748h-1.44V1.884zm6.662 3.856c-.392 0-.767-.048-1.123-.143a2.717 2.717 0 01-.916-.455 2.188 2.188 0 01-.621-.759c-.153-.303-.23-.66-.23-1.07v-.18c0-.386.077-.725.23-1.017.152-.291.36-.535.621-.732.262-.196.567-.342.916-.437.356-.101.73-.152 1.123-.152s.764.051 1.113.152c.349.095.654.241.916.437.269.197.48.44.632.732.153.292.23.631.23 1.018v.178c0 .405-.077.759-.23 1.062a2.139 2.139 0 01-.632.759 2.717 2.717 0 01-.916.455 3.99 3.99 0 01-1.113.152zm0-1c.407 0 .745-.119 1.014-.357.277-.238.415-.595.415-1.07v-.18c0-.434-.138-.764-.414-.99-.27-.232-.608-.348-1.015-.348-.414 0-.756.116-1.025.348-.269.226-.403.556-.403.99v.18c0 .481.134.841.403 1.08.27.231.611.347 1.025.347zm3.87 1a3.4 3.4 0 01-.218-.01c-.087 0-.16-.006-.218-.018V4.65c.036.006.09.01.163.01a.65.65 0 00.36-.099.76.76 0 00.251-.357c.073-.167.124-.387.153-.66a8.24 8.24 0 00.054-1.036V.902h4.58v4.73h-1.44V1.884h-1.81v.803c0 .613-.04 1.118-.12 1.517-.072.393-.188.702-.348.928a1.209 1.209 0 01-.589.473c-.233.09-.505.134-.818.134zm9.048 0c-.393 0-.768-.048-1.124-.143a2.718 2.718 0 01-.916-.455 2.187 2.187 0 01-.621-.759c-.153-.303-.23-.66-.23-1.07v-.18c0-.386.077-.725.23-1.017a2.15 2.15 0 01.621-.732c.262-.196.567-.342.916-.437.356-.101.73-.152 1.123-.152s.764.051 1.113.152c.349.095.654.241.916.437.269.197.48.44.632.732.153.292.23.631.23 1.018v.178c0 .405-.077.759-.23 1.062a2.139 2.139 0 01-.632.759 2.717 2.717 0 01-.916.455 3.99 3.99 0 01-1.113.152zm0-1c.407 0 .745-.119 1.014-.357.276-.238.414-.595.414-1.07v-.18c0-.434-.138-.764-.414-.99-.27-.232-.607-.348-1.015-.348-.414 0-.756.116-1.025.348-.269.226-.403.556-.403.99v.18c0 .481.134.841.403 1.08.27.231.611.347 1.025.347zM49.56.902h4.143v.982H51v3.748h-1.44V.902zm5.015 0h1.44v3.034L58.588.902h1.33v4.73H58.48V2.598l-2.573 3.034h-1.33V.902zm7.821 2.954c-.443-.119-.767-.298-.97-.536a1.25 1.25 0 01-.306-.838c0-.232.048-.444.142-.634.102-.196.25-.363.447-.5a2.18 2.18 0 01.742-.33 4.38 4.38 0 011.068-.116h2.727v4.73h-1.44V3.999H63.77l-1.254 1.633h-1.614l1.494-1.776zm.164-1.374c0 .202.08.35.24.446.167.095.389.143.665.143h1.341V1.884h-1.341c-.276 0-.498.05-.665.151a.482.482 0 00-.24.447z" fill="#000"/><path fill-rule="evenodd" clip-rule="evenodd" d="M2.279 3.357a2.124 2.124 0 00-.14-.004c-.95 0-1.721.63-1.721 1.407 0 .778.77 1.408 1.721 1.408.95 0 1.722-.63 1.722-1.408 0-.06-.005-.118-.014-.176-.814-.053-1.468-.57-1.568-1.227z" fill="#5D00F5"/><path fill-rule="evenodd" clip-rule="evenodd" d="M3.86 1.669C3.86.89 3.09.26 2.14.26 1.188.26.417.89.417 1.669c0 .777.77 1.407 1.721 1.407.044 0 .088-.001.131-.004.064-.692.74-1.244 1.586-1.296.003-.036.005-.071.005-.107z" fill="#EB236B"/><path fill-rule="evenodd" clip-rule="evenodd" d="M5.704 3.065c.07.008.143.011.216.011.95 0 1.72-.63 1.72-1.407C7.64.89 6.87.26 5.92.26c-.951 0-1.722.63-1.722 1.408 0 .038.002.076.006.113.803.083 1.435.618 1.5 1.283z" fill="#4BD0A0"/><path fill-rule="evenodd" clip-rule="evenodd" d="M4.213 4.577c-.01.06-.015.121-.015.183 0 .778.77 1.408 1.722 1.408.95 0 1.72-.63 1.72-1.408 0-.777-.77-1.407-1.72-1.407a2.12 2.12 0 00-.225.011c-.1.631-.711 1.13-1.482 1.213z" fill="#06F"/></svg>