<svg width="46" height="46" viewBox="0 0 46 46" fill="none" xmlns="http://www.w3.org/2000/svg">
<path d="M15.5135 4V9.71428M30.6486 4V9.71428M7 17.5048H39.1622M42 36.3809C42 37.8095 41.6027 39.1619 40.9027 40.3047C40.2357 41.4333 39.2884 42.3675 38.1539 43.0155C37.0193 43.6634 35.7368 44.0027 34.4324 44C32.5216 44 30.7811 43.2952 29.4568 42.0952C28.8703 41.6 28.3595 40.9905 27.9622 40.3047C27.242 39.1246 26.8621 37.766 26.8649 36.3809C26.8649 32.1714 30.2514 28.7619 34.4324 28.7619C36.7027 28.7619 38.727 29.7714 40.1081 31.3524C41.3248 32.7414 41.9974 34.529 42 36.3809Z" stroke="black" stroke-width="2" stroke-miterlimit="10" stroke-linecap="round" stroke-linejoin="round"/>
<path d="M32 36.9898L33.9038 39L38 35" stroke="#AD475C" stroke-width="2" stroke-linecap="round" stroke-linejoin="round"/>
<path d="M41 16.4595V31.3297C39.5806 29.7595 37.5 28.7568 35.1667 28.7568C30.8694 28.7568 27.3889 32.1432 27.3889 36.3243C27.3889 37.7432 27.7972 39.0865 28.5167 40.2216C28.925 40.9027 29.45 41.5081 30.0528 42H15.7222C8.91667 42 6 38.2162 6 32.5405V16.4595C6 10.7838 8.91667 7 15.7222 7H31.2778C38.0833 7 41 10.7838 41 16.4595Z" stroke="black" stroke-width="2" stroke-miterlimit="10" stroke-linecap="round" stroke-linejoin="round"/>
<path d="M22.9811 26H23M16 26H16.0189M16 32H16.0189" stroke="#AD475C" stroke-width="3" stroke-linecap="round" stroke-linejoin="round"/>
</svg>
