<svg width="36" height="36" viewBox="0 0 36 36" fill="none" xmlns="http://www.w3.org/2000/svg">
<rect width="36" height="36" rx="7" fill="#F7F7F7"/>
<path d="M22.4274 18.9001L18.7694 27C18.0418 27 17.3439 26.7155 16.8294 26.2092C16.3149 25.7028 16.0259 25.0161 16.0259 24.3L16.0259 20.7L10.8497 20.7C10.5846 20.703 10.322 20.6492 10.0801 20.5423C9.83821 20.4355 9.62281 20.2782 9.44883 20.0813C9.27485 19.8844 9.14645 19.6526 9.07253 19.402C8.9986 19.1514 8.98092 18.888 9.02071 18.6301L10.2827 10.5301C10.3489 10.1009 10.5704 9.70967 10.9065 9.42851C11.2426 9.14735 11.6707 8.99521 12.1118 9.00012L22.4274 9.00012M22.4274 18.9001L22.4274 9.00012M22.4274 18.9001L25.171 18.9001C25.6561 18.9001 26.1213 18.7104 26.4643 18.3728C26.8073 18.0353 27 17.5774 27 17.1001L27 10.8001C27 10.3227 26.8073 9.86488 26.4643 9.52732C26.1213 9.18976 25.6561 9.00012 25.171 9.00012L22.4274 9.00012" stroke="#B2AAAA" stroke-width="2" stroke-linecap="round" stroke-linejoin="round"/>
</svg>
