<svg width="31" height="31" fill="none" xmlns="http://www.w3.org/2000/svg"><path d="M2.583 6.458h4.58a3.875 3.875 0 007.633 0h13.62a.646.646 0 100-1.291h-13.62a3.875 3.875 0 00-7.634 0H2.583a.646.646 0 000 1.291zM10.98 3.23a2.583 2.583 0 110 5.167 2.583 2.583 0 010-5.167zm17.438 11.625h-4.58a3.875 3.875 0 00-7.633 0H2.584a.646.646 0 100 1.292h13.62a3.875 3.875 0 007.634 0h4.579a.646.646 0 100-1.292zm-8.396 3.23a2.584 2.584 0 110-5.168 2.584 2.584 0 010 5.167zm8.396 6.458H14.796a3.875 3.875 0 00-7.634 0H2.583a.646.646 0 100 1.291h4.58a3.875 3.875 0 007.633 0h13.62a.646.646 0 100-1.291zM10.979 27.77a2.584 2.584 0 110-5.168 2.584 2.584 0 010 5.168z" fill="#AD475C"/></svg>