<svg width="27" height="27" fill="none" xmlns="http://www.w3.org/2000/svg"><g clip-path="url(#clip0_30_934)"><path d="M25.814 3.928h-5.1V1.187A1.187 1.187 0 0019.181.052L14.875 1.36a2.052 2.052 0 00-2.752 0L7.82.051a1.186 1.186 0 00-1.532 1.136v2.741h-5.1A1.188 1.188 0 000 5.115v2.4A1.188 1.188 0 001.028 8.69v16.333A1.98 1.98 0 003.006 27h20.988a1.98 1.98 0 001.978-1.977V8.69A1.188 1.188 0 0027 7.515v-2.4a1.188 1.188 0 00-1.186-1.187zM15.468 5.756a.395.395 0 10.23-.757l-.327-.1c.123-.266.186-.557.186-.85v-.185h1.7a.396.396 0 000-.791h-1.7v-.185c0-.293-.063-.584-.186-.85l4.04-1.23a.395.395 0 01.511.379V4.26a.366.366 0 000 .127V5.75a.395.395 0 01-.51.378l-2.342-.712a.393.393 0 00-.039-.01l-.011-.001a.396.396 0 00-.027-.004l-.016-.001-.023-.001h-.015l-.024.002-.013.002a.109.109 0 00-.025.004l-.01.002a.37.37 0 00-.028.007l-.008.003a.38.38 0 00-.028.01l-.01.005-.024.011a.427.427 0 00-.034.02l-.003.003a.371.371 0 00-.028.02l-.01.01a.371.371 0 00-.019.017l-.012.012-.014.016-.011.015-.012.016-.01.017-.01.017-.01.02-.007.015a.415.415 0 00-.011.032l-.002.004a.373.373 0 00-.01.038c0 .008-.002.015-.003.022l-.002.016-.001.025v.053l.004.02.003.018c0 .006.002.011.004.017l.005.02.005.016.008.021.008.017.008.018a.4.4 0 00.02.033l1.666 2.502a.4.4 0 00.013.02l.707 1.062-1.14.148a.396.396 0 00-.292.194l-.577.996-1.09-1.638-.002-.002-1.935-2.906.287-.43c.225-.09.433-.22.614-.383l.592.18zm-3.234-2.868a1.265 1.265 0 112.532 0v1.16a1.268 1.268 0 01-.822 1.185.398.398 0 00-.11.036 1.265 1.265 0 01-1.6-1.22v-1.16zM7.078 1.187a.396.396 0 01.51-.378l4.04 1.228a2.043 2.043 0 00-.185.851v.185h-1.7a.396.396 0 000 .79h1.7v.185c0 .294.063.585.186.852l-1.698.516-2.343.712a.395.395 0 01-.51-.378V1.187zM1.187 7.91a.396.396 0 01-.396-.395v-2.4a.396.396 0 01.396-.396h5.1v1.03a1.188 1.188 0 001.532 1.136l1.286-.391-.943 1.416H1.187zm9.835 18.299H3.005a1.188 1.188 0 01-1.187-1.186V8.7h5.816l-.657.987a.396.396 0 00.278.612l1.579.204.797 1.378a.396.396 0 00.672.02l.718-1.079V26.21zm.067-16.913l-1.091 1.639-.577-.996a.395.395 0 00-.291-.194l-1.141-.148.712-1.07.001-.001 1.594-2.394 1.828-.556a2.05 2.05 0 001.102.51l-.027.042a.394.394 0 00-.055.081l-2.053 3.084-.002.003zm14.092 15.727a1.188 1.188 0 01-1.187 1.186H15.98v-2.85a.395.395 0 00-.791 0v2.85h-3.376l.002-16.574L13.5 7.102l1.688 2.535v12.14a.396.396 0 00.79 0V10.824l.718 1.078a.396.396 0 00.672-.021l.797-1.378 1.579-.204a.397.397 0 00.278-.612l-.657-.987h5.816v16.322zm1.028-17.508a.396.396 0 01-.395.395h-6.976l-.943-1.416 1.287.391a1.188 1.188 0 001.532-1.135V4.72h5.1a.396.396 0 01.395.395v2.4z" fill="#AD475C"/></g><defs><clipPath id="clip0_30_934"><path fill="#fff" d="M0 0h27v27H0z"/></clipPath></defs></svg>