<svg width="39" height="39" fill="none" xmlns="http://www.w3.org/2000/svg"><path d="M18.89 17.063a1.219 1.219 0 11-2.437 0 1.219 1.219 0 012.438 0zm17.494 19.321a.61.61 0 01-.862 0l-2.953-2.953a7.902 7.902 0 01-12.848-4.181H4.831a1.786 1.786 0 01-1.784-1.785v-16.54a1.786 1.786 0 011.785-1.784h7.965V6.66a1.786 1.786 0 011.785-1.785h6.18a1.786 1.786 0 011.785 1.785v2.48h7.965a1.786 1.786 0 011.785 1.785v10.266a7.89 7.89 0 011.134 11.378l2.953 2.953a.61.61 0 010 .862zM14.016 9.141h7.312V6.66a.566.566 0 00-.566-.566h-6.18a.567.567 0 00-.566.566v2.48zm-9.75 1.784v4.557c2 1.054 13.962 6.747 26.812-.011v-4.546a.566.566 0 00-.566-.566H4.832a.566.566 0 00-.566.566zM19.53 28.032a7.712 7.712 0 01-.031-.61H6.094a.61.61 0 01-.61-.608v-1.829a.61.61 0 01.61-.609h14.015a7.905 7.905 0 0110.97-3.974v-3.554a29.036 29.036 0 01-13.102 3.1 32.45 32.45 0 01-13.711-3.101v10.62a.567.567 0 00.566.565h14.7zm.19-2.437H6.703v.61h12.9c.033-.207.07-.41.118-.61zm14.404 1.828a6.703 6.703 0 10-6.703 6.703 6.711 6.711 0 006.703-6.703zm-6.703-5.485a.61.61 0 000 1.22 4.271 4.271 0 014.265 4.265.61.61 0 001.22 0 5.49 5.49 0 00-5.485-5.485zM5.484 14.625a.61.61 0 00.61-.61v-1.828H9.14a.61.61 0 100-1.218H5.484a.61.61 0 00-.609.61v2.437a.61.61 0 00.61.609zm20.72-2.438h3.046v1.829a.61.61 0 001.219 0v-2.438a.61.61 0 00-.61-.61h-3.656a.61.61 0 000 1.22zm-11.579 0h6.094a.609.609 0 100-1.218h-6.094a.61.61 0 000 1.219z" fill="#AD475C"/></svg>