<svg width="36" height="36" viewBox="0 0 36 36" fill="none" xmlns="http://www.w3.org/2000/svg">
<rect width="36" height="36" rx="7" fill="#F7F7F7"/>
<path d="M13.5726 17.0999L17.2306 9C17.9582 9 18.6561 9.28446 19.1706 9.79081C19.6851 10.2972 19.9741 10.9839 19.9741 11.7V15.3H25.1503C25.4154 15.297 25.678 15.3508 25.9199 15.4577C26.1618 15.5645 26.3772 15.7218 26.5512 15.9187C26.7251 16.1156 26.8535 16.3474 26.9275 16.598C27.0014 16.8486 27.0191 17.112 26.9793 17.3699L25.7173 25.4699C25.6511 25.8991 25.4296 26.2903 25.0935 26.5715C24.7574 26.8527 24.3293 27.0048 23.8882 26.9999H13.5726M13.5726 17.0999V26.9999M13.5726 17.0999H10.829C10.3439 17.0999 9.87872 17.2896 9.53571 17.6272C9.1927 17.9647 9 18.4226 9 18.8999V25.1999C9 25.6773 9.1927 26.1351 9.53571 26.4727C9.87872 26.8102 10.3439 26.9999 10.829 26.9999H13.5726" stroke="#B2AAAA" stroke-width="2" stroke-linecap="round" stroke-linejoin="round"/>
</svg>
