<svg width="46" height="46" viewBox="0 0 46 46" fill="none" xmlns="http://www.w3.org/2000/svg">
<path d="M16.35 36.2034H15.4C7.8 36.2034 4 34.3091 4 24.8375V15.3659C4 7.78863 7.8 4 15.4 4H30.6C38.2 4 42 7.78863 42 15.3659V24.8375C42 32.4148 38.2 36.2034 30.6 36.2034H29.65C29.061 36.2034 28.491 36.4875 28.13 36.9611L25.28 40.7498C24.026 42.4168 21.974 42.4168 20.72 40.7498L17.87 36.9611C17.566 36.5444 16.863 36.2034 16.35 36.2034Z" stroke="black" stroke-width="2" stroke-miterlimit="10" stroke-linecap="round" stroke-linejoin="round"/>
<path d="M13 15H32M13 25H24.4" stroke="#AD475C" stroke-width="2" stroke-linecap="round" stroke-linejoin="round"/>
</svg>
