<svg width="48" height="48" fill="none" xmlns="http://www.w3.org/2000/svg"><g opacity=".5" fill="#fff"><path d="M26.596 29.44l3.587 3.463a1.769 1.769 0 010 2.566 1.926 1.926 0 01-2.657 0l-3.527-3.403-3.523 3.403a1.913 1.913 0 01-1.33.53 1.91 1.91 0 01-1.329-.53 1.77 1.77 0 010-2.566l3.587-3.463a12.281 12.281 0 01-3.726-1.489c-.878-.534-1.142-1.654-.589-2.502.552-.85 1.712-1.105 2.592-.57 2.626 1.594 6.01 1.595 8.638 0 .88-.535 2.04-.28 2.592.57.553.847.289 1.968-.59 2.502a12.263 12.263 0 01-3.725 1.49z"/><path fill-rule="evenodd" clip-rule="evenodd" d="M17.568 18.194c0 3.414 2.877 6.191 6.416 6.191 3.539 0 6.416-2.777 6.416-6.191 0-3.416-2.877-6.194-6.416-6.194-3.539 0-6.416 2.778-6.416 6.194zm9.072 0c0-1.415-1.191-2.564-2.656-2.564-1.464 0-2.657 1.15-2.657 2.564 0 1.413 1.193 2.563 2.657 2.563 1.465 0 2.656-1.15 2.656-2.563z"/></g></svg>