<svg width="46" height="46" viewBox="0 0 46 46" fill="none" xmlns="http://www.w3.org/2000/svg">
<path d="M30.6 4H15.4C7.8 4 4 7.8 4 15.4V40.1C4 41.145 4.855 42 5.9 42H30.6C38.2 42 42 38.2 42 30.6V15.4C42 7.8 38.2 4 30.6 4Z" stroke="black" stroke-width="2" stroke-linecap="round" stroke-linejoin="round"/>
<path d="M24.2239 14.5908L14.3719 24.4411C13.9923 24.8207 13.6316 25.5609 13.5557 26.0923L13.0242 29.8502C12.8343 31.2167 13.7835 32.1656 15.1502 31.9758L18.9088 31.4444C19.4403 31.3685 20.1806 31.0079 20.5602 30.6283L30.4122 20.7781C32.1016 19.0889 32.9179 17.1151 30.4122 14.6098C27.9065 12.0856 25.9323 12.8827 24.2239 14.5908Z" stroke="#AD475C" stroke-width="2" stroke-miterlimit="10" stroke-linecap="round" stroke-linejoin="round"/>
<path d="M23 16C23.4008 17.4311 24.1634 18.7349 25.2142 19.7858C26.2651 20.8366 27.5689 21.5992 29 22" stroke="#AD475C" stroke-width="2" stroke-miterlimit="10" stroke-linecap="round" stroke-linejoin="round"/>
</svg>
