<svg width="223" height="223" viewBox="0 0 223 223" fill="none" xmlns="http://www.w3.org/2000/svg">
<g clip-path="url(#clip0_22_2917)">
<g filter="url(#filter0_d_22_2917)">
<path d="M95.9081 19.0975C103.909 9.36879 118.802 9.36879 126.803 19.0975L139.184 34.1532C142.916 38.6916 148.456 41.3591 154.331 41.4475L173.822 41.7405C186.416 41.9299 195.702 53.5741 193.084 65.895L189.033 84.9622C187.811 90.7098 189.18 96.7037 192.774 101.352L204.697 116.773C212.401 126.738 209.087 141.258 197.822 146.894L180.389 155.614C175.134 158.243 171.3 163.05 169.907 168.758L165.284 187.695C162.297 199.931 148.878 206.394 137.449 201.1L119.761 192.907C114.429 190.437 108.281 190.437 102.95 192.907L85.2621 201.1C73.8327 206.394 60.414 199.931 57.4268 187.695L52.8041 168.758C51.4106 163.05 47.5773 158.243 42.3222 155.614L24.8889 146.894C13.6238 141.258 10.3097 126.738 18.0142 116.773L29.9373 101.352C33.5314 96.7037 34.8995 90.7098 33.6782 84.9622L29.6268 65.895C27.0089 53.5741 36.2949 41.9299 48.8894 41.7405L68.38 41.4475C74.2553 41.3591 79.7945 38.6916 83.5268 34.1532L95.9081 19.0975Z" fill="white"/>
</g>
<path d="M86.4555 115.213C96.8555 115.213 104.455 108.013 104.455 95.8135C104.455 83.7135 96.8555 76.4135 86.4555 76.4135C76.1555 76.4135 68.5555 83.7135 68.5555 95.8135C68.5555 108.013 76.1555 115.213 86.4555 115.213ZM80.0555 147.313H94.4555L142.255 77.3135H127.855L80.0555 147.313ZM86.4555 105.713C83.2555 105.713 80.5555 102.913 80.5555 95.8135C80.5555 88.7135 83.2555 85.9135 86.4555 85.9135C89.8555 85.9135 92.3555 88.7135 92.3555 95.8135C92.3555 102.913 89.8555 105.713 86.4555 105.713ZM135.855 148.213C146.255 148.213 153.855 141.013 153.855 128.813C153.855 116.713 146.255 109.413 135.855 109.413C125.455 109.413 117.955 116.713 117.955 128.813C117.955 141.013 125.455 148.213 135.855 148.213ZM135.855 138.713C132.555 138.713 129.955 135.913 129.955 128.813C129.955 121.713 132.555 118.913 135.855 118.913C139.155 118.913 141.755 121.713 141.755 128.813C141.755 135.913 139.155 138.713 135.855 138.713Z" fill="#AD475C"/>
</g>
<defs>
<filter id="filter0_d_22_2917" x="13.832" y="11.8008" width="215.047" height="211.162" filterUnits="userSpaceOnUse" color-interpolation-filters="sRGB">
<feFlood flood-opacity="0" result="BackgroundImageFix"/>
<feColorMatrix in="SourceAlpha" type="matrix" values="0 0 0 0 0 0 0 0 0 0 0 0 0 0 0 0 0 0 127 0" result="hardAlpha"/>
<feOffset dx="10" dy="10"/>
<feGaussianBlur stdDeviation="5"/>
<feComposite in2="hardAlpha" operator="out"/>
<feColorMatrix type="matrix" values="0 0 0 0 0.163333 0 0 0 0 0.163333 0 0 0 0 0.163333 0 0 0 0.2 0"/>
<feBlend mode="normal" in2="BackgroundImageFix" result="effect1_dropShadow_22_2917"/>
<feBlend mode="normal" in="SourceGraphic" in2="effect1_dropShadow_22_2917" result="shape"/>
</filter>
<clipPath id="clip0_22_2917">
<rect width="222" height="222" fill="white" transform="translate(0.355469 0.313477)"/>
</clipPath>
</defs>
</svg>
