<svg width="20" height="20" viewBox="0 0 20 20" fill="none" xmlns="http://www.w3.org/2000/svg">
<path fill-rule="evenodd" clip-rule="evenodd" d="M0 7.89217C0 12.2439 3.5472 15.7843 7.90726 15.7843C9.8032 15.7843 11.5454 15.1149 12.9091 14.0004L18.6494 19.7297C18.7227 19.8031 18.8099 19.8613 18.9058 19.901C19.0017 19.9407 19.1046 19.961 19.2084 19.9609C19.365 19.9613 19.5181 19.9152 19.6483 19.8285C19.7786 19.7419 19.8801 19.6185 19.94 19.4742C19.9999 19.3298 20.0155 19.171 19.9848 19.0178C19.9541 18.8646 19.8784 18.7239 19.7675 18.6137L14.0272 12.8844C15.1438 11.5233 15.8145 9.78445 15.8145 7.89217C15.8145 3.54043 12.2673 0 7.90726 0C3.5472 0 0 3.54043 0 7.89217ZM1.58145 7.89217C1.58145 4.41094 4.41937 1.57843 7.90726 1.57843C11.3959 1.57843 14.2331 4.41094 14.2331 7.89217C14.2331 11.3734 11.3951 14.2059 7.90726 14.2059C4.41937 14.2059 1.58145 11.3734 1.58145 7.89217Z" fill="#C4C4C4"/>
</svg>
