<svg width="28" height="28" fill="none" xmlns="http://www.w3.org/2000/svg"><path d="M18.8 10.84c.644-.644 1.283-2.147-1.4-.322-3.813 2.63-7.57 5.1-7.57 5.1a3.148 3.148 0 01-2.47.054c-1.61-.483-3.49-1.127-3.49-1.127s-1.284-.806.913-1.665c0 0 9.288-3.811 12.51-5.154 1.234-.537 5.42-2.254 5.42-2.254s1.934-.753 1.773 1.073c-.054.751-.483 3.383-.912 6.228-.646 4.026-1.343 8.429-1.343 8.429s-.108 1.234-1.02 1.449a4.418 4.418 0 01-2.683-.966c-.215-.161-4.026-2.577-5.423-3.758a1.018 1.018 0 01.054-1.718 197.567 197.567 0 005.64-5.37z" fill="#fff" opacity=".5"/></svg>