<svg width="27" height="27" fill="none" xmlns="http://www.w3.org/2000/svg"><path d="M24.75 6.525a9.53 9.53 0 01-2.655.72 4.647 4.647 0 002.036-2.554c-.907.54-1.9.92-2.936 1.125a4.613 4.613 0 00-7.875 4.208 13.094 13.094 0 01-9.506-4.827 4.68 4.68 0 00-.619 2.33 4.601 4.601 0 002.047 3.836 4.556 4.556 0 01-2.092-.574v.056a4.613 4.613 0 003.712 4.5 4.422 4.422 0 01-1.237.191c-.29-.003-.58-.03-.866-.079a4.624 4.624 0 004.309 3.195 9.247 9.247 0 01-6.818 1.913 13.016 13.016 0 007.076 2.081A13.038 13.038 0 0022.5 9.506V8.91a9.483 9.483 0 002.25-2.385z" fill="#fff" opacity=".5"/></svg>