<svg width="24" height="24" fill="none" xmlns="http://www.w3.org/2000/svg"><path fill-rule="evenodd" clip-rule="evenodd" d="M12 0c6.628 0 12 5.372 12 12s-5.372 12-12 12S0 18.628 0 12 5.372 0 12 0zm.719 4.888a6.614 6.614 0 012.198.651c.712.348 1.168.678 1.77 1.277.564.566.878.995 1.21 1.66.462.928.726 2.032.77 3.247.017.414.005.507-.09.625-.18.23-.576.192-.711-.066-.043-.085-.055-.159-.07-.49a8.568 8.568 0 00-.13-1.232c-.28-1.542-1.02-2.773-2.2-3.656-.985-.74-2.002-1.1-3.335-1.177-.451-.027-.53-.043-.631-.121-.19-.15-.2-.5-.017-.663.111-.102.19-.117.576-.105.202.007.498.031.66.05zm-5.423.256c.084.028.211.094.285.142.45.298 1.706 1.902 2.116 2.702.235.457.313.796.24 1.047-.077.27-.202.412-.764.865-.226.182-.437.369-.47.419a1.104 1.104 0 00-.154.535c.002.396.258 1.113.595 1.665.261.428.728.978 1.19 1.4.544.497 1.023.835 1.564 1.103.695.346 1.12.434 1.43.29.079-.037.162-.084.188-.105.023-.022.206-.244.405-.49.384-.484.472-.562.736-.652.334-.113.676-.083 1.02.093.26.135.83.488 1.197.743.484.339 1.519 1.182 1.658 1.35.247.303.29.692.124 1.12-.175.453-.859 1.301-1.336 1.663-.431.327-.737.453-1.14.471-.333.017-.47-.011-.895-.187-3.33-1.37-5.99-3.417-8.1-6.228-1.103-1.469-1.943-2.992-2.517-4.571-.334-.922-.35-1.322-.076-1.793.119-.199.624-.692.992-.966.612-.455.894-.624 1.12-.67.154-.034.422-.008.592.054zm5.587 1.461c1.44.211 2.554.879 3.285 1.963.41.612.666 1.33.754 2.099.03.282.03.796-.003.881-.03.08-.13.19-.216.234a.53.53 0 01-.398-.014c-.183-.092-.237-.24-.237-.637a3.8 3.8 0 00-.434-1.762 3.603 3.603 0 00-1.324-1.376c-.476-.284-1.181-.495-1.824-.547-.232-.019-.36-.066-.448-.168a.432.432 0 01-.036-.536c.123-.191.314-.222.88-.137zm.504 1.788c.468.1.826.277 1.132.564.394.372.61.822.704 1.468.064.422.038.588-.11.725-.141.128-.4.133-.556.012-.114-.086-.15-.176-.175-.42a2.247 2.247 0 00-.186-.762c-.208-.448-.576-.68-1.197-.756-.292-.035-.38-.068-.475-.18a.44.44 0 01.133-.662c.09-.046.128-.05.328-.039.135.008.27.025.402.05z" fill="#fff" opacity=".5"/></svg>