<svg width="28" height="28" fill="none" xmlns="http://www.w3.org/2000/svg"><path d="M27.365 6.748a10.04 10.04 0 01-1.271 2.635l.022-.035c-.523.872-1.147 1.878-1.873 3.02-.622.901-.951 1.368-.988 1.4-.16.202-.273.449-.311.72l-.002.009c.032.247.146.463.313.624l.467.52c2.496 2.566 3.9 4.335 4.213 5.307a1.04 1.04 0 01-.13.967l.001-.004a1.126 1.126 0 01-.914.337h.004-3.075a1.65 1.65 0 01-1.038-.366l.003.002a8.083 8.083 0 01-1.11-1.106l-.01-.014a34.48 34.48 0 00-1.43-1.534c-1.386-1.317-2.409-1.976-3.069-1.976a.92.92 0 00-.602.158l.004-.003a.895.895 0 00-.187.681v-.004a14.622 14.622 0 00-.044 1.637v-.02 1.352a.91.91 0 01-.31.883l-.002.001a3.709 3.709 0 01-1.886.312h.015a9.71 9.71 0 01-4.987-1.479l.04.024a13.92 13.92 0 01-4.336-4.113l-.031-.049a30.756 30.756 0 01-2.883-4.657l-.082-.18A28.77 28.77 0 01.438 8.528l-.07-.216a7.753 7.753 0 01-.362-1.79l-.002-.03c0-.59.346-.884 1.04-.884h3.069a1.235 1.235 0 01.862.263l-.003-.003a2.1 2.1 0 01.492.92l.003.014a29.658 29.658 0 001.852 4.217l-.079-.16a16.985 16.985 0 001.894 3.006l-.027-.037c.622.764 1.108 1.146 1.456 1.146l.037.001a.468.468 0 00.405-.233l.001-.002a2.08 2.08 0 00.13-.918v.007-4.526a3.746 3.746 0 00-.373-1.478l.009.022a3.45 3.45 0 00-.525-.81l.003.004a1.281 1.281 0 01-.362-.722l-.002-.007c0-.199.091-.377.234-.494v-.001a.791.791 0 01.538-.208h4.846a.74.74 0 01.652.259l.001.001a1.587 1.587 0 01.186.89v-.005 6.035a1.173 1.173 0 00.158.681l-.002-.004a.468.468 0 00.389.207c.206-.014.393-.081.55-.189l-.003.003c.317-.219.59-.467.827-.748l.005-.006a18.19 18.19 0 001.93-2.625l.046-.082a25.74 25.74 0 001.228-2.325l.073-.171.52-1.041a1.31 1.31 0 011.303-.886h-.003 3.07c.828 0 1.14.382.932 1.145z" fill="#fff" opacity=".5"/></svg>