<svg width="22" height="22" fill="none" xmlns="http://www.w3.org/2000/svg"><g opacity=".5" clip-path="url(#clip0_30_9)"><path d="M3.898 0A3.89 3.89 0 000 3.898v14.204A3.89 3.89 0 003.898 22h10.454L22 11.003 14.352 0H3.898zm5.854 4.016h2.484c.153 0 .24.056.24.187v13.69c0 .093-.044.15-.175.15h-1.35c-.087 0-.152-.076-.152-.132v-5.068h-1.09l-3.03 5.068c-.043.094-.13.131-.26.131H4.872c-.174 0-.283-.13-.174-.299l3.333-5.162c-1.786-.673-2.789-2.038-2.789-3.89 0-3.085 2.07-4.675 4.51-4.675zm-.065 1.197c-1.33 0-2.637.953-2.637 3.291 0 2.245 1.395 3.142 2.833 3.142h.916V5.213H9.687z" fill="#fff"/></g><defs><clipPath id="clip0_30_9"><path fill="#fff" d="M0 0h22v22H0z"/></clipPath></defs></svg>